<mxfile host="Electron" modified="2025-02-07T14:06:11.543Z" agent="Mozilla/5.0 (Windows NT 10.0; Win64; x64) AppleWebKit/537.36 (KHTML, like Gecko) draw.io/21.5.0 Chrome/112.0.5615.204 Electron/24.5.1 Safari/537.36" etag="PpR-XIcDWS6gwWowqGi0" version="21.5.0" type="device">
  <diagram name="第 1 页" id="nJRzv5rlB3VEnub_vDUY">
    <mxGraphModel dx="1416" dy="818" grid="1" gridSize="10" guides="1" tooltips="1" connect="1" arrows="1" fold="1" page="1" pageScale="1" pageWidth="827" pageHeight="1169" math="0" shadow="0">
      <root>
        <mxCell id="0" />
        <mxCell id="1" parent="0" />
        <mxCell id="L7PPIbatm0o-3SstzBcX-66" value="&lt;font style=&quot;font-size: 16px;&quot;&gt;a3&lt;/font&gt;" style="rounded=0;whiteSpace=wrap;html=1;fillColor=#ffe6cc;strokeColor=#d79b00;" parent="1" vertex="1">
          <mxGeometry x="603" y="280" width="40" height="30" as="geometry" />
        </mxCell>
        <mxCell id="L7PPIbatm0o-3SstzBcX-68" value="&lt;font style=&quot;font-size: 16px;&quot;&gt;a1&lt;/font&gt;" style="rounded=0;whiteSpace=wrap;html=1;fillColor=#FFB366;" parent="1" vertex="1">
          <mxGeometry x="683" y="280" width="40" height="30" as="geometry" />
        </mxCell>
        <mxCell id="L7PPIbatm0o-3SstzBcX-69" value="&lt;font style=&quot;font-size: 16px;&quot;&gt;a0&lt;/font&gt;" style="rounded=0;whiteSpace=wrap;html=1;fillColor=#ffe6cc;strokeColor=#d79b00;" parent="1" vertex="1">
          <mxGeometry x="723" y="280" width="40" height="30" as="geometry" />
        </mxCell>
        <mxCell id="L7PPIbatm0o-3SstzBcX-70" value="&lt;font style=&quot;font-size: 16px;&quot;&gt;a7&lt;/font&gt;" style="rounded=0;whiteSpace=wrap;html=1;fillColor=#ffe6cc;strokeColor=#d79b00;" parent="1" vertex="1">
          <mxGeometry x="443" y="280" width="40" height="30" as="geometry" />
        </mxCell>
        <mxCell id="L7PPIbatm0o-3SstzBcX-71" value="&lt;font style=&quot;font-size: 16px;&quot;&gt;a6&lt;/font&gt;" style="rounded=0;whiteSpace=wrap;html=1;fillColor=#ffe6cc;strokeColor=#d79b00;" parent="1" vertex="1">
          <mxGeometry x="483" y="280" width="40" height="30" as="geometry" />
        </mxCell>
        <mxCell id="L7PPIbatm0o-3SstzBcX-72" value="&lt;font style=&quot;font-size: 16px;&quot;&gt;a5&lt;/font&gt;" style="rounded=0;whiteSpace=wrap;html=1;fillColor=#ffe6cc;strokeColor=#d79b00;" parent="1" vertex="1">
          <mxGeometry x="523" y="280" width="40" height="30" as="geometry" />
        </mxCell>
        <mxCell id="L7PPIbatm0o-3SstzBcX-73" value="&lt;font style=&quot;font-size: 16px;&quot;&gt;a4&lt;/font&gt;" style="rounded=0;whiteSpace=wrap;html=1;fillColor=#ffe6cc;strokeColor=#d79b00;" parent="1" vertex="1">
          <mxGeometry x="563" y="280" width="40" height="30" as="geometry" />
        </mxCell>
        <mxCell id="L7PPIbatm0o-3SstzBcX-79" value="" style="shape=curlyBracket;whiteSpace=wrap;html=1;rounded=1;labelPosition=left;verticalLabelPosition=middle;align=right;verticalAlign=middle;rotation=90;size=0.5;" parent="1" vertex="1">
          <mxGeometry x="430.66" y="-61.34" width="22.63" height="635" as="geometry" />
        </mxCell>
        <mxCell id="L7PPIbatm0o-3SstzBcX-80" value="&lt;font style=&quot;font-size: 16px;&quot;&gt;VLEN =&amp;nbsp; &lt;font style=&quot;font-size: 16px;&quot; color=&quot;#ff0000&quot;&gt;128 &lt;/font&gt;bits&lt;/font&gt;" style="text;strokeColor=none;align=center;fillColor=none;html=1;verticalAlign=middle;whiteSpace=wrap;rounded=0;" parent="1" vertex="1">
          <mxGeometry x="384" y="200" width="130" height="30" as="geometry" />
        </mxCell>
        <mxCell id="L7PPIbatm0o-3SstzBcX-81" value="&lt;font style=&quot;font-size: 16px;&quot;&gt;a2&lt;/font&gt;" style="rounded=0;whiteSpace=wrap;html=1;fillColor=#ffe6cc;strokeColor=#d79b00;" parent="1" vertex="1">
          <mxGeometry x="643" y="280" width="40" height="30" as="geometry" />
        </mxCell>
        <mxCell id="L7PPIbatm0o-3SstzBcX-82" value="&lt;font style=&quot;font-size: 16px;&quot;&gt;a1&lt;/font&gt;" style="rounded=0;whiteSpace=wrap;html=1;fillColor=#ffe6cc;strokeColor=#d79b00;" parent="1" vertex="1">
          <mxGeometry x="683" y="280" width="40" height="30" as="geometry" />
        </mxCell>
        <mxCell id="2B8QoLhaIMbZjg2y5yDT-1" value="&lt;font style=&quot;font-size: 16px;&quot;&gt;a11&lt;/font&gt;" style="rounded=0;whiteSpace=wrap;html=1;fillColor=#ffe6cc;strokeColor=#d79b00;" vertex="1" parent="1">
          <mxGeometry x="283" y="280" width="40" height="30" as="geometry" />
        </mxCell>
        <mxCell id="2B8QoLhaIMbZjg2y5yDT-2" value="&lt;font style=&quot;font-size: 16px;&quot;&gt;a1&lt;/font&gt;" style="rounded=0;whiteSpace=wrap;html=1;fillColor=#FFB366;" vertex="1" parent="1">
          <mxGeometry x="363" y="280" width="40" height="30" as="geometry" />
        </mxCell>
        <mxCell id="2B8QoLhaIMbZjg2y5yDT-3" value="&lt;font style=&quot;font-size: 16px;&quot;&gt;a8&lt;/font&gt;" style="rounded=0;whiteSpace=wrap;html=1;fillColor=#ffe6cc;strokeColor=#d79b00;" vertex="1" parent="1">
          <mxGeometry x="403" y="280" width="40" height="30" as="geometry" />
        </mxCell>
        <mxCell id="2B8QoLhaIMbZjg2y5yDT-4" value="&lt;font style=&quot;font-size: 16px;&quot;&gt;a15&lt;/font&gt;" style="rounded=0;whiteSpace=wrap;html=1;fillColor=#ffe6cc;strokeColor=#d79b00;" vertex="1" parent="1">
          <mxGeometry x="124" y="280" width="40" height="30" as="geometry" />
        </mxCell>
        <mxCell id="2B8QoLhaIMbZjg2y5yDT-5" value="&lt;font style=&quot;font-size: 16px;&quot;&gt;a14&lt;/font&gt;" style="rounded=0;whiteSpace=wrap;html=1;fillColor=#ffe6cc;strokeColor=#d79b00;" vertex="1" parent="1">
          <mxGeometry x="164" y="280" width="40" height="30" as="geometry" />
        </mxCell>
        <mxCell id="2B8QoLhaIMbZjg2y5yDT-6" value="&lt;font style=&quot;font-size: 16px;&quot;&gt;a13&lt;/font&gt;" style="rounded=0;whiteSpace=wrap;html=1;fillColor=#ffe6cc;strokeColor=#d79b00;" vertex="1" parent="1">
          <mxGeometry x="204" y="280" width="40" height="30" as="geometry" />
        </mxCell>
        <mxCell id="2B8QoLhaIMbZjg2y5yDT-7" value="&lt;font style=&quot;font-size: 16px;&quot;&gt;a12&lt;/font&gt;" style="rounded=0;whiteSpace=wrap;html=1;fillColor=#ffe6cc;strokeColor=#d79b00;" vertex="1" parent="1">
          <mxGeometry x="244" y="280" width="39" height="30" as="geometry" />
        </mxCell>
        <mxCell id="2B8QoLhaIMbZjg2y5yDT-8" value="&lt;span style=&quot;font-size: 16px;&quot;&gt;a10&lt;/span&gt;" style="rounded=0;whiteSpace=wrap;html=1;fillColor=#ffe6cc;strokeColor=#d79b00;" vertex="1" parent="1">
          <mxGeometry x="323" y="280" width="40" height="30" as="geometry" />
        </mxCell>
        <mxCell id="2B8QoLhaIMbZjg2y5yDT-9" value="&lt;font style=&quot;font-size: 16px;&quot;&gt;a9&lt;/font&gt;" style="rounded=0;whiteSpace=wrap;html=1;fillColor=#ffe6cc;strokeColor=#d79b00;" vertex="1" parent="1">
          <mxGeometry x="363" y="280" width="40" height="30" as="geometry" />
        </mxCell>
        <mxCell id="2B8QoLhaIMbZjg2y5yDT-12" value="&lt;font style=&quot;font-size: 16px;&quot;&gt;b0&lt;/font&gt;" style="rounded=0;whiteSpace=wrap;html=1;fillColor=#f8cecc;strokeColor=#b85450;" vertex="1" parent="1">
          <mxGeometry x="684" y="341" width="80" height="30" as="geometry" />
        </mxCell>
        <mxCell id="2B8QoLhaIMbZjg2y5yDT-14" value="&lt;font style=&quot;font-size: 16px;&quot;&gt;b3&lt;/font&gt;" style="rounded=0;whiteSpace=wrap;html=1;fillColor=#f8cecc;strokeColor=#b85450;" vertex="1" parent="1">
          <mxGeometry x="444" y="341" width="80" height="30" as="geometry" />
        </mxCell>
        <mxCell id="2B8QoLhaIMbZjg2y5yDT-16" value="&lt;font style=&quot;font-size: 16px;&quot;&gt;b2&lt;/font&gt;" style="rounded=0;whiteSpace=wrap;html=1;fillColor=#f8cecc;strokeColor=#b85450;" vertex="1" parent="1">
          <mxGeometry x="524" y="341" width="80" height="30" as="geometry" />
        </mxCell>
        <mxCell id="2B8QoLhaIMbZjg2y5yDT-17" value="&lt;font style=&quot;font-size: 16px;&quot;&gt;b1&lt;/font&gt;" style="rounded=0;whiteSpace=wrap;html=1;fillColor=#f8cecc;strokeColor=#b85450;" vertex="1" parent="1">
          <mxGeometry x="604" y="341" width="80" height="30" as="geometry" />
        </mxCell>
        <mxCell id="2B8QoLhaIMbZjg2y5yDT-21" value="&lt;font style=&quot;font-size: 16px;&quot;&gt;b4&lt;/font&gt;" style="rounded=0;whiteSpace=wrap;html=1;fillColor=#f8cecc;strokeColor=#b85450;" vertex="1" parent="1">
          <mxGeometry x="364" y="341" width="80" height="30" as="geometry" />
        </mxCell>
        <mxCell id="2B8QoLhaIMbZjg2y5yDT-23" value="&lt;font style=&quot;font-size: 16px;&quot;&gt;b7&lt;/font&gt;" style="rounded=0;whiteSpace=wrap;html=1;fillColor=#f8cecc;strokeColor=#b85450;" vertex="1" parent="1">
          <mxGeometry x="125" y="341" width="80" height="30" as="geometry" />
        </mxCell>
        <mxCell id="2B8QoLhaIMbZjg2y5yDT-25" value="&lt;font style=&quot;font-size: 16px;&quot;&gt;b6&lt;/font&gt;" style="rounded=0;whiteSpace=wrap;html=1;fillColor=#f8cecc;strokeColor=#b85450;" vertex="1" parent="1">
          <mxGeometry x="205" y="341" width="80" height="30" as="geometry" />
        </mxCell>
        <mxCell id="2B8QoLhaIMbZjg2y5yDT-26" value="&lt;span style=&quot;font-size: 16px;&quot;&gt;b5&lt;/span&gt;" style="rounded=0;whiteSpace=wrap;html=1;fillColor=#f8cecc;strokeColor=#b85450;" vertex="1" parent="1">
          <mxGeometry x="284" y="341" width="80" height="30" as="geometry" />
        </mxCell>
        <mxCell id="2B8QoLhaIMbZjg2y5yDT-64" value="&lt;font style=&quot;font-size: 16px;&quot;&gt;c0&lt;/font&gt;" style="rounded=0;whiteSpace=wrap;html=1;fillColor=#e1d5e7;strokeColor=#9673a6;" vertex="1" parent="1">
          <mxGeometry x="604" y="402" width="160" height="30" as="geometry" />
        </mxCell>
        <mxCell id="2B8QoLhaIMbZjg2y5yDT-66" value="&lt;font style=&quot;font-size: 16px;&quot;&gt;c1&lt;/font&gt;" style="rounded=0;whiteSpace=wrap;html=1;fillColor=#e1d5e7;strokeColor=#9673a6;" vertex="1" parent="1">
          <mxGeometry x="444" y="402" width="160" height="30" as="geometry" />
        </mxCell>
        <mxCell id="2B8QoLhaIMbZjg2y5yDT-68" value="&lt;font style=&quot;font-size: 16px;&quot;&gt;c2&lt;/font&gt;" style="rounded=0;whiteSpace=wrap;html=1;fillColor=#e1d5e7;strokeColor=#9673a6;" vertex="1" parent="1">
          <mxGeometry x="284" y="402" width="160" height="30" as="geometry" />
        </mxCell>
        <mxCell id="2B8QoLhaIMbZjg2y5yDT-70" value="&lt;font style=&quot;font-size: 16px;&quot;&gt;c3&lt;/font&gt;" style="rounded=0;whiteSpace=wrap;html=1;fillColor=#e1d5e7;strokeColor=#9673a6;" vertex="1" parent="1">
          <mxGeometry x="125" y="402" width="160" height="30" as="geometry" />
        </mxCell>
        <mxCell id="2B8QoLhaIMbZjg2y5yDT-72" value="&lt;font style=&quot;font-size: 16px;&quot;&gt;d0&lt;/font&gt;" style="rounded=0;whiteSpace=wrap;html=1;fillColor=#d5e8d4;strokeColor=#82b366;" vertex="1" parent="1">
          <mxGeometry x="444" y="462" width="320" height="30" as="geometry" />
        </mxCell>
        <mxCell id="2B8QoLhaIMbZjg2y5yDT-74" value="&lt;font style=&quot;font-size: 16px;&quot;&gt;d1&lt;/font&gt;" style="rounded=0;whiteSpace=wrap;html=1;fillColor=#d5e8d4;strokeColor=#82b366;" vertex="1" parent="1">
          <mxGeometry x="124" y="462" width="320" height="30" as="geometry" />
        </mxCell>
        <mxCell id="2B8QoLhaIMbZjg2y5yDT-76" value="SEW=8b" style="text;strokeColor=none;align=left;fillColor=none;html=1;verticalAlign=middle;whiteSpace=wrap;rounded=0;" vertex="1" parent="1">
          <mxGeometry x="30" y="280" width="60" height="30" as="geometry" />
        </mxCell>
        <mxCell id="2B8QoLhaIMbZjg2y5yDT-77" value="SEW=16b" style="text;strokeColor=none;align=left;fillColor=none;html=1;verticalAlign=middle;whiteSpace=wrap;rounded=0;" vertex="1" parent="1">
          <mxGeometry x="30" y="341" width="60" height="30" as="geometry" />
        </mxCell>
        <mxCell id="2B8QoLhaIMbZjg2y5yDT-78" value="SEW=32b" style="text;strokeColor=none;align=left;fillColor=none;html=1;verticalAlign=middle;whiteSpace=wrap;rounded=0;" vertex="1" parent="1">
          <mxGeometry x="30" y="400" width="60" height="30" as="geometry" />
        </mxCell>
        <mxCell id="2B8QoLhaIMbZjg2y5yDT-79" value="SEW=64b" style="text;strokeColor=none;align=left;fillColor=none;html=1;verticalAlign=middle;whiteSpace=wrap;rounded=0;" vertex="1" parent="1">
          <mxGeometry x="30" y="462" width="60" height="30" as="geometry" />
        </mxCell>
      </root>
    </mxGraphModel>
  </diagram>
</mxfile>
